# xmcd
#
# Track frame offsets:
#	150
#	14199
#	28391
#	38806
#	53020
#	63262
#	75267
#	88268
#	97667
#	108863
#	120940
#	132941
#	143985
#
# Disc length: 2058 seconds
#
# Revision: 0
# Processed by: cddbd v1.5.2PL0 Copyright (c) Steve Scherf et al.
# Submitted via: audiograbber 1.83.01
#
DISCID=a208080d
DTITLE=bluegrass favorites d1 - 25 greatest
DYEAR=1900
DGENRE=
TTITLE0=i am a man of constant sorrow
TTITLE1=thank god i`m a country boy
TTITLE2=okie from muskogee
TTITLE3=highway 40 blues
TTITLE4=tiger by the tail
TTITLE5=wabash cannonball
TTITLE6=blue moon of kentucky
TTITLE7=going up to cripple creek
TTITLE8=wildwood flower
TTITLE9=chattahoochie
TTITLE10=ring of fire
TTITLE11=please help me i`m falling
TTITLE12=i walk the line
EXTD=
EXTT0=
EXTT1=
EXTT2=
EXTT3=
EXTT4=
EXTT5=
EXTT6=
EXTT7=
EXTT8=
EXTT9=
EXTT10=
EXTT11=
EXTT12=
PLAYORDER=
